Genre:Drama/Fantasy/Sci-Fi 
IMDB:http://www.imdb.com/title/tt0969653/
Language:English
Country:USA
Encoder: Tony2
.............................................
General
Complete name : White Wall 2010 DVDRip.MP4.AAC.FEEL-FREE
Format : MPEG-4
Format profile : Base Media
Codec ID : isom
File size : 840 MiB
Duration : 1h 35mn
Overall bit rate : 1 235 Kbps
...............................................
Video
ID : 1
Format : MPEG-4 Visual
Format profile : Simple@L1
Format settings, BVOP : No
Format settings, QPel : No
Format settings, GMC : No warppoints
Format settings, Matrix : Default (H.263)
Codec ID : 20
Duration : 1h 35mn
Bit rate mode : Variable
Bit rate : 1 103 Kbps
Width : 704 pixels
Height : 304 pixels
Display aspect ratio : 2.35:1
Frame rate mode : Constant
Frame rate : 23.976 fps
Resolution : 24 bits
Colorimetry : 4:2:0
Scan type : Progressive
Bits/(Pixel*Frame) : 0.215
Stream size : 750 MiB (89%)
Writing library : Lavc51.40.4
................................................
Audio
ID : 2
Format : AAC
Format/Info : Advanced Audio Codec
Format version : Version 4
Format profile : LC
Format settings, SBR : No
Codec ID : 40
Duration : 1h 35mn
Bit rate mode : Variable
Bit rate : 128 Kbps
Channel(s) : 2 channels
Channel positions : L R
Sampling rate : 48.0 KHz
Resolution : 16 bits
Stream size : 86.8 MiB (10%)
.................................................
Plot:
Set in a wasteland enclosed by a large white wall, the last survivor from a brutal child internment camp reluctantly takes on one final bounty hunting job to protect the idyllic life he has rebuilt. 
..................................................
Screenshots: 
http://postimg.com/image/17000/16449.jpg
...................................................